<svg width="563" height="124" viewBox="0 0 563 124" fill="none" xmlns="http://www.w3.org/2000/svg">
<path d="M120.051 58.6904C119.99 56.5286 119.899 54.3973 119.838 52.2355C119.625 45.8112 119.686 39.4172 119.259 32.9929C118.985 28.9434 119.503 18.1041 114.297 16.6122C113.018 16.2468 111.495 16.5818 108.512 17.4343C102.909 19.048 104.005 24.1022 104.371 25.7768C104.401 25.8986 104.432 26.0204 104.432 26.1422V26.1727L104.462 26.4467C104.736 29.7959 112.317 101.956 113.109 105.701C113.261 106.462 113.748 108.715 115.362 108.715C115.423 108.715 115.484 108.715 115.545 108.715C117.098 108.563 117.585 106.432 117.585 105.427C117.585 105.305 117.585 105.123 117.585 104.94C117.554 103.722 117.585 102.961 117.646 102.443C117.707 102.504 117.768 102.595 117.828 102.656C118.255 103.235 119.016 103.357 119.594 102.991C120.264 102.565 120.386 102.169 120.508 98.0587C120.569 95.7447 120.599 92.426 120.63 88.2243C120.63 78.4202 120.386 68.5553 120.051 58.6904Z" fill="white"/>
<path d="M109.67 17.7076C109 17.1595 108.208 16.9464 107.386 17.0986C101.51 18.0729 98.1911 29.7647 95.9685 34.1796C86.5298 52.996 75.8428 71.6297 67.6525 91.0247C66.9827 92.5775 66.4955 94.1912 66.2824 95.5918C65.917 97.8144 66.3128 98.5452 66.7391 98.9105C67.0131 99.1846 67.3785 99.3064 67.7439 99.3064C67.9874 99.3064 68.231 99.2455 68.4442 99.1237L68.84 98.941L69.0226 98.5452C70.0883 96.353 71.4279 93.8258 72.2805 92.4862C72.4023 92.5166 72.5241 92.547 72.6459 92.547C73.5289 92.6079 74.2292 92.1208 76.2996 88.9543C77.5479 87.097 79.1921 84.3567 81.232 80.8248C90.4576 64.8704 101.723 48.9465 109.974 32.3223C110.979 30.3128 112.806 27.2071 113.049 24.8931C113.384 22.4269 112.075 19.6562 109.67 17.7076Z" fill="white"/>
<path d="M122.609 77.0192C122.183 76.4407 122.061 76.2581 114.784 75.6796C111.222 75.3751 106.32 75.0402 100.169 74.6443C90.0305 74.005 79.8307 73.4265 79.1609 73.396C78.5215 73.3351 75.6594 73.122 74.1675 74.4921C73.5586 75.0706 73.2237 75.8013 73.2541 76.6843C73.3454 81.3732 73.7108 83.5045 74.5024 84.5093C74.9896 85.1182 75.5985 85.3314 76.2684 85.3314C77.0904 85.3314 77.943 84.9964 78.7041 84.7224C79.2826 84.5093 79.8916 84.2961 80.4396 84.1743C81.0181 84.0526 86.1028 83.5045 91.4615 82.926C97.551 82.2562 105.102 81.4341 111.131 80.7034C114.449 80.3075 116.916 79.9726 118.681 79.7291C121.665 79.3028 122.548 79.1505 122.792 78.1458C122.944 77.7195 122.853 77.3237 122.609 77.0192Z" fill="white"/>
<path d="M70.8175 20.7227C70.513 20.2964 70.178 19.8701 69.7822 19.4743C67.042 16.6123 62.8402 15.638 58.8821 15.4857C21.5841 13.8416 -3.86974 68.8598 0.48422 100.525C0.971377 104.087 2.00654 107.711 4.32054 110.481C19.1484 128.293 50.7527 109.172 59.2779 94.3442C59.8564 93.309 60.4349 92.1216 60.1 90.995C59.5824 89.29 57.2379 88.8028 55.6242 89.5336C54.0105 90.2643 52.9145 91.7867 51.7879 93.1872C45.1504 101.225 23.8373 112.156 19.3919 96.0493C14.9771 80.1253 22.1018 63.1358 30.6575 49.9216C33.0628 46.2071 55.6242 15.1508 61.5615 27.5124C63.1143 30.6789 74.7452 26.3554 70.8175 20.7227Z" fill="white"/>
<path d="M174.492 20.6623C174.461 20.3578 174.37 20.0838 174.248 19.8098C172.452 15.9125 164.688 18.6224 161.856 19.5662C157.198 21.119 155.371 27.2389 155.188 27.8783C154.884 28.7917 148.886 46.9992 143.314 65.2372C139.965 76.1678 137.437 84.967 135.763 91.361C134.758 95.1973 134.088 98.2116 133.693 100.343C133.175 103.266 133.144 104.88 134.271 105.61C135.002 106.067 135.854 106.493 136.798 106.493C137.042 106.493 137.316 106.463 137.59 106.402C138.99 106.037 139.873 104.697 140.421 103.723C140.908 102.84 143.496 96.3848 148.398 84.0841C156.497 63.7757 168.737 33.0848 171.264 29.0658C172.452 27.2085 174.857 23.2503 174.492 20.6623Z" fill="white"/>
<path d="M181.647 91.148C181.921 90.6609 182.377 89.8388 181.86 89.0167C181.312 88.1642 180.307 88.2251 179.911 88.2251C160.151 89.3212 144.41 90.0824 141.304 90.2346C140.726 89.7779 139.751 89.2603 138.655 89.6865C137.011 90.2955 136.767 92.4572 136.706 94.0101L136.676 94.9844C136.554 98.8512 136.463 100.982 137.711 102.231C138.229 102.748 138.929 103.022 139.751 103.022C139.812 103.022 139.843 103.022 139.903 103.022C142.4 102.931 178.541 97.3897 180.185 96.8417C181.616 96.3849 181.464 94.7103 181.312 93.2489C181.281 92.8226 181.22 92.1223 181.251 91.9396C181.342 91.6961 181.495 91.422 181.647 91.148Z" fill="white"/>
<path d="M229.78 17.2516C228.866 16.46 225.974 17.0994 224.939 17.1907C220.433 17.5865 216.292 18.2259 213.582 22.1536C210.628 26.4162 209.715 32.1099 208.223 36.9815C204.904 48.0338 201.616 59.0862 198.48 70.169C196.47 77.2328 194.339 84.2661 192.999 91.4821C190.533 104.727 191.66 105.671 192.482 106.158C192.756 106.493 193.06 107.893 193.213 108.594C193.517 110.116 193.791 111.425 195.07 111.638C195.161 111.638 195.222 111.669 195.313 111.669C195.983 111.669 196.562 111.242 197.019 110.39C197.567 109.385 197.962 108.289 198.297 107.223C198.419 106.828 198.571 106.462 198.693 106.097C207.066 83.5049 213.886 60.4563 223.629 38.382C224.512 36.3421 225.426 34.3325 226.37 32.2926C228.227 28.2126 230.358 24.5285 230.663 19.9919C230.724 19.5351 230.815 18.1346 229.78 17.2516Z" fill="white"/>
<path d="M238.063 92.6701C237.759 91.6045 236.602 90.9651 234.958 91.026C215.258 91.574 198.39 91.8785 195.407 91.9394C194.828 91.4827 193.884 90.9346 192.788 91.3C191.144 91.8785 190.809 94.0098 190.718 95.5626C190.657 96.3543 190.626 97.1154 190.565 97.8157C190.291 101.348 190.139 103.692 191.327 104.971C191.662 105.336 192.301 105.793 193.275 105.793C193.275 105.793 193.275 105.793 193.306 105.793C195.924 105.762 233.587 100.099 234.897 99.7339C235.323 99.6121 235.688 99.3076 235.871 98.9118C236.236 98.1811 235.962 97.4199 235.719 96.6892C235.658 96.5674 235.597 96.3847 235.567 96.2325C237.119 95.2886 238.489 94.1316 238.063 92.6701Z" fill="white"/>
<path d="M274.296 51.9921C272.287 53.9408 269.851 54.9151 266.928 54.9151C264.005 54.9151 261.539 53.9408 259.56 51.9921C257.55 50.0435 256.576 47.6077 256.576 44.7152C256.576 41.8227 257.581 39.387 259.56 37.4383C261.569 35.4897 264.005 34.5154 266.928 34.5154C269.851 34.5154 272.317 35.4897 274.296 37.4383C276.306 39.387 277.28 41.8227 277.28 44.7152C277.311 47.6077 276.306 50.0435 274.296 51.9921ZM272.804 44.7152C272.804 42.9493 272.226 41.4574 271.099 40.209C269.973 38.9607 268.572 38.3517 266.928 38.3517C265.284 38.3517 263.883 38.9607 262.757 40.209C261.63 41.4574 261.052 42.9493 261.052 44.7152C261.052 46.4812 261.63 47.9731 262.757 49.2214C263.883 50.4698 265.284 51.0787 266.928 51.0787C268.572 51.0787 269.973 50.4698 271.099 49.2214C272.256 48.0035 272.804 46.4812 272.804 44.7152Z" fill="white"/>
<path d="M300.237 34.9719V38.8387H291.072V43.1013H299.78V46.9681H291.072V54.7017H286.657V34.9414H300.237V34.9719Z" fill="white"/>
<path d="M255.298 69.8655V85.7894H250.883V69.8655H245.281V66.0596H260.87V69.8655H255.298Z" fill="white"/>
<path d="M282.031 66.0295H286.446V85.7898H282.031V78.0258H274.176V85.7898H269.761V66.0295H274.176V74.2808H282.031V66.0295Z" fill="white"/>
<path d="M311.199 66.0295V69.9572H301.364V74.0372H310.194V77.7822H301.364V81.8926H311.503V85.7898H296.949V66.0295H311.199Z" fill="white"/>
<path d="M341.099 2.05856C340.398 0.657988 338.998 -0.133641 337.597 0.0185953C335.527 0.262174 328.646 1.90633 324.748 4.89016C320.425 8.20892 320.638 11.7104 320.76 13.7808C321.978 34.6981 327.641 119.007 328.402 121.534C328.646 122.386 329.133 124 330.533 124H330.564C331.964 123.97 332.36 122.356 332.604 121.473C332.786 120.742 332.665 119.768 332.421 118.215C332.33 117.667 332.208 116.875 332.147 116.205C332.299 116.327 332.482 116.51 332.695 116.693C333.152 117.119 333.791 117.241 334.339 117.028C335.161 116.693 335.557 115.871 335.983 113.587C336.258 112.065 336.562 109.933 336.836 107.315C337.415 101.682 337.841 94.3443 338.054 86.6412C338.389 75.1016 338.541 61.7048 338.724 48.7343C338.876 37.3165 338.998 30.1614 339.241 21.9102C339.546 10.7969 339.972 7.93489 340.216 7.26505C341.312 5.98626 342.103 4.00719 341.099 2.05856Z" fill="white"/>
<path d="M412.133 17.2215C411.433 16.1863 410.063 15.821 408.51 16.2777C405.983 17.0389 402.908 20.2967 401.903 21.6973C380.833 50.3178 370.512 90.8431 370.39 91.2389C369.933 92.7308 368.533 97.5111 367.437 101.926C366.767 104.544 366.31 106.706 366.036 108.32C365.61 110.969 365.671 112.065 366.31 112.704C367.163 113.557 368.533 114.044 369.994 114.044C371.273 114.044 372.582 113.648 373.617 112.765C380.803 106.493 383.147 94.649 386.497 86.1238C391.368 73.7317 396.118 61.3092 400.776 48.8563C402.512 44.2587 404.217 39.6308 405.891 35.0028C407.414 30.801 408.601 26.0208 410.854 22.1236C411.494 21.0275 412.651 19.8096 412.529 18.409C412.499 17.9523 412.377 17.5565 412.133 17.2215Z" fill="white"/>
<path d="M377.3 98.699C373.829 94.8018 372.612 81.3136 372.216 76.8683C371.576 69.7436 371.028 48.4914 371.211 46.9691C371.485 45.2031 369.932 40.6969 368.288 38.3525C367.497 37.2259 366.583 36.7692 365.609 36.9519C363.782 37.3173 362.686 39.7835 361.042 47.1213L361.011 47.2126V47.304C361.011 47.4258 359.946 60.305 359.885 74.3107C359.793 93.3403 361.468 105.337 364.908 109.965C366.126 111.609 367.74 112.492 369.476 112.492C369.719 112.492 369.993 112.461 370.237 112.431C373.647 111.944 376.661 108.351 377.849 105.063C378.823 102.474 378.61 100.16 377.3 98.699Z" fill="white"/>
<path d="M369.477 30.6183C368.381 29.8876 366.98 29.9485 366.188 30.7705C365.305 31.6535 364.362 32.5669 363.296 33.115C361.774 33.8762 359.673 37.0122 359.064 37.9561L358.972 38.1083L358.912 38.2606C357.785 41.5184 351.452 57.8382 344.875 72.0571C340.278 82.0134 335.589 89.5947 332.788 94.1314C331.296 96.5672 330.596 97.6633 330.352 98.3635C329.073 101.865 330.047 108.99 332.087 111.273C332.788 112.034 333.488 112.248 334.036 112.248C334.249 112.248 334.462 112.217 334.615 112.187C335.772 111.882 337.69 111.425 353.583 76.5024C361.591 58.9039 369.325 40.9399 370.421 38.1692C372.43 33.0541 370.207 31.1055 369.477 30.6183Z" fill="white"/>
<path d="M436.339 22.1237C433.081 20.8145 432.167 21.0276 428.3 21.7888L427.417 21.9715C422.12 23.0372 419.927 29.7356 419.836 30.0096L419.806 30.0705C419.684 30.4968 408.175 72.1487 403.79 86.4893C402.238 91.6045 401.202 95.8976 400.806 98.9118C400.38 102.2 400.715 103.783 401.903 104.301C402.024 104.362 402.268 104.453 402.572 104.453C403.09 104.453 403.821 104.21 404.46 103.144C405.465 101.469 405.952 101.104 406.074 101.043C406.135 101.043 406.226 101.074 406.317 101.104C407.688 101.5 408.936 101.317 410.611 99.3077C412.163 97.4199 416.396 85.4846 423.155 66.181C427.996 52.3579 434.603 33.5415 436.369 30.923C437.8 30.5576 438.896 29.1875 439.17 27.3911C439.475 25.4425 438.713 23.0676 436.339 22.1237Z" fill="white"/>
<path d="M472.144 21.0878C471.657 19.0783 470.165 18.1954 469.617 17.8604C468.003 16.8861 465.628 17.4342 460.604 19.1088C455.946 20.6616 454.119 26.7815 453.936 27.4209C453.632 28.3343 447.634 46.5418 442.062 64.7797C438.713 75.7103 436.186 84.5096 434.511 90.9035C433.506 94.7399 432.836 97.7542 432.441 99.8855C431.923 102.808 431.892 104.422 433.019 105.153C433.75 105.61 434.602 106.036 435.546 106.036C435.79 106.036 436.064 106.005 436.338 105.944C437.738 105.579 438.621 104.239 439.169 103.265C439.657 102.382 442.245 95.9273 447.147 83.6266C455.246 63.3183 467.485 32.6274 470.012 28.6083C471.931 25.5636 472.631 23.0974 472.144 21.0878Z" fill="white"/>
<path d="M479.817 89.5637C479.573 87.9804 478.355 87.0061 476.742 87.0366C455.946 87.6151 439.383 87.95 436.125 88.0109C435.516 87.5237 434.511 86.9452 433.385 87.3411C431.649 87.95 431.314 90.1726 431.223 91.8168C431.193 92.1822 431.193 92.5171 431.162 92.852C430.919 96.9015 430.766 99.1546 432.015 100.464C432.563 101.042 433.324 101.347 434.268 101.347H434.298C437.13 101.316 475.676 95.166 477.138 94.7093C478.995 94.1917 480.121 91.4514 479.817 89.5637Z" fill="white"/>
<path d="M552.464 17.7993C542.903 7.20362 514.526 0.931471 512.639 6.32064C511.999 8.14748 511.116 10.1266 509.502 11.3749C507.067 13.2322 502.621 14.7545 505.818 18.53C506.61 19.4434 507.676 20.0828 508.772 20.6004C515.287 23.5843 522.503 21.5138 529.08 23.9192C546.587 30.374 547.014 51.9916 541.198 66.6368C533.799 85.2705 511.786 99.3067 491.66 96.1097C489.62 95.7748 487.52 94.8309 485.51 95.7444C484.962 95.9879 480.791 98.6064 482.709 99.3372C485.175 100.281 488.068 100.433 490.808 100.433C502.347 101.225 513.674 99.5503 524.3 94.9223C549.023 84.144 571.554 54.062 558.401 26.4463C557.092 23.6147 555.021 20.6309 552.464 17.7993Z" fill="white"/>
<path d="M521.377 31.9884C518.82 31.075 516.506 32.9931 513.948 32.78C510.934 32.5364 508.589 34.9722 507.128 38.565C499.212 57.8077 495.801 71.8134 488.951 91.5128C488.677 92.3349 488.372 93.1875 488.19 94.04C487.002 97.3892 486.393 99.7641 486.058 101.286C485.815 102.383 485.693 103.326 485.632 104.027C485.602 104.544 485.541 105.579 486.363 105.945C486.424 105.975 486.576 106.036 486.728 106.036C487.093 106.067 487.581 105.945 488.007 105.123C490.138 100.982 491.113 100.464 491.295 100.403C491.417 100.495 491.63 100.799 491.721 100.952C492.026 101.439 492.483 102.078 493.274 102.048C494.127 102.017 494.553 101.226 494.705 100.921C494.949 100.495 495.223 99.9468 495.527 99.3378C497.567 98.3026 499.333 96.5975 499.912 95.0752C507.615 74.2492 514.831 60.3957 521.773 39.2957C522.504 37.1644 523.234 32.6582 521.377 31.9884Z" fill="white"/>
</svg>
