<svg width="301" height="194" viewBox="0 0 301 194" fill="none" xmlns="http://www.w3.org/2000/svg">
<path d="M268.292 11.4091V21.6276C268.292 22.5017 268.518 23.195 268.969 23.6773C269.421 24.1746 269.646 24.3254 270.58 24.3404L273.559 24.3254V29.9922H269.692C267.494 29.9922 265.673 29.2537 264.168 27.8069C262.648 26.36 261.896 24.4007 261.896 21.9139V11.4091H258.449V6.46566H261.896V0H268.292V6.46566H273.544V11.4091H268.292Z" fill="white"/>
<path d="M256.161 30.0075H250.186V26.7973C248.545 28.8621 246.529 29.8869 244.106 29.8869C241.698 29.8869 239.666 29.1786 238.025 27.792C236.385 26.3903 235.572 24.5215 235.572 22.2005C235.572 19.8795 236.415 18.1161 238.116 16.9707C239.801 15.8102 242.119 15.2374 245.054 15.2374H249.795V15.1169C249.795 12.6904 248.5 11.4696 245.942 11.4696C244.843 11.4696 243.669 11.6806 242.45 12.1177C241.216 12.5547 240.178 13.0973 239.335 13.7454L236.49 9.63086C239.485 7.46057 242.902 6.36035 246.739 6.36035C249.509 6.36035 251.766 7.05364 253.512 8.44021C255.258 9.82679 256.146 12.0122 256.146 15.0114V30.0075H256.161ZM249.764 20.8591V19.7589H245.791C243.248 19.7589 241.984 20.5426 241.984 22.1402C241.984 22.954 242.285 23.587 242.887 24.0241C243.489 24.4612 244.361 24.6873 245.49 24.6873C246.619 24.6873 247.612 24.3406 248.47 23.6473C249.328 22.939 249.764 22.0196 249.764 20.8591Z" fill="white"/>
<path d="M223.939 24.2498C226.061 24.2498 227.957 23.1948 229.658 21.0697L233.42 25.3198C230.486 28.3793 227.31 29.9016 223.894 29.9016C220.477 29.9016 217.588 28.8164 215.24 26.6612C212.877 24.506 211.703 21.6725 211.703 18.176C211.703 14.6794 212.892 11.8459 215.285 9.66058C217.663 7.47522 220.492 6.375 223.773 6.375C225.414 6.375 227.069 6.70657 228.755 7.38479C230.44 8.06301 231.915 9.05772 233.179 10.3991L229.884 14.7246C229.146 13.8505 228.258 13.1722 227.19 12.6899C226.121 12.2077 225.083 11.9665 224.029 11.9665C222.374 11.9665 220.929 12.5091 219.74 13.5942C218.536 14.6794 217.934 16.2016 217.934 18.1307C217.934 20.075 218.536 21.567 219.74 22.6522C220.929 23.7223 222.328 24.2498 223.939 24.2498Z" fill="white"/>
<path d="M208.769 12.3437C206.873 12.3437 205.458 13.0069 204.54 14.3633C203.607 15.7047 203.14 17.4831 203.14 19.6835V29.9924H196.789V6.46585H203.14V9.75143C203.968 8.817 204.976 8.03329 206.21 7.37014C207.444 6.72207 208.694 6.37542 209.958 6.36035L210.003 12.3437H208.769Z" fill="white"/>
<path d="M191.206 26.2396C188.632 28.6661 185.622 29.8869 182.161 29.8869C178.699 29.8869 175.343 28.8169 173.085 26.6767C170.828 24.5366 169.699 21.688 169.699 18.101C169.699 14.514 170.843 11.6504 173.146 9.54043C175.448 7.41535 178.669 6.36035 181.784 6.36035C184.915 6.36035 187.579 7.30985 189.761 9.20886C191.943 11.1079 193.042 13.7002 193.042 17.0008V20.3919H176.442C176.637 21.6428 177.284 22.6526 178.383 23.4363C179.482 24.2201 180.731 24.627 182.115 24.627C184.343 24.627 186.179 23.8734 187.624 22.3813L191.206 26.2396ZM185.11 12.7205C184.238 11.982 183.169 11.6203 181.92 11.6203C180.656 11.6203 179.512 11.9971 178.473 12.7657C177.435 13.5344 176.818 14.5592 176.652 15.8554H186.646C186.48 14.499 185.983 13.459 185.11 12.7205Z" fill="white"/>
<path d="M163.106 11.4091V21.6276C163.106 22.5017 163.332 23.195 163.784 23.6773C164.235 24.1746 164.461 24.3254 165.394 24.3404L168.374 24.3254V29.9922H164.506C162.309 29.9922 160.488 29.2537 158.983 27.8069C157.478 26.36 156.725 24.4007 156.725 21.9139V11.4091H153.264V6.46566H156.725V0H163.121V6.46566H168.359V11.4091H163.106Z" fill="white"/>
<path d="M151.353 22.5319C151.353 24.7776 150.525 26.5862 148.87 27.9426C147.214 29.299 145.122 29.9773 142.579 29.9773C140.893 29.9773 139.132 29.6758 137.296 29.073C135.46 28.4701 133.805 27.5658 132.345 26.3752L135.144 22.3963C137.522 24.235 140.035 25.1544 142.729 25.1544C143.542 25.1544 144.204 24.9886 144.671 24.6721C145.152 24.3556 145.393 23.9185 145.393 23.376C145.393 22.8485 145.062 22.3511 144.4 21.8839C143.738 21.4317 142.774 21.0097 141.525 20.6179C140.261 20.226 139.313 19.8794 138.651 19.593C137.988 19.3067 137.236 18.8997 136.393 18.3572C134.677 17.2871 133.805 15.6895 133.805 13.5946C133.805 11.4846 134.647 9.76641 136.348 8.44012C138.034 7.11383 140.231 6.45068 142.91 6.45068C145.589 6.45068 148.268 7.35497 150.962 9.16355L148.584 13.3986C146.612 12.0422 144.641 11.364 142.684 11.364C140.728 11.364 139.734 11.9066 139.734 12.9766C139.734 13.5644 140.05 14.0316 140.667 14.3783C141.284 14.7249 142.323 15.1168 143.753 15.5689C145.197 16.0211 146.221 16.3677 146.823 16.6089C147.425 16.85 148.147 17.2268 149.005 17.7392C150.555 18.6887 151.353 20.2863 151.353 22.5319Z" fill="white"/>
<path d="M114.345 16.9253V29.9923H107.994V7.38505H114.345V9.35941C116.272 7.40012 118.424 6.43555 120.817 6.43555C123.225 6.43555 125.226 7.27955 126.852 8.98263C128.477 10.6857 129.29 12.9464 129.29 15.7648V29.9923H122.939V16.7444C122.939 13.2328 121.644 11.4845 119.086 11.4845C117.807 11.4845 116.708 11.9517 115.76 12.856C114.812 13.7904 114.345 15.1318 114.345 16.9253Z" fill="white"/>
<path d="M104.803 18.2365C104.803 21.5522 103.659 24.3254 101.371 26.5861C99.0837 28.8468 96.2091 29.9772 92.7627 29.9772C89.3162 29.9772 86.4417 28.8468 84.1541 26.5861C81.8665 24.3254 80.7227 21.5372 80.7227 18.2365C80.7227 14.9359 81.8665 12.1326 84.1541 9.85677C86.4417 7.58098 89.3162 6.43555 92.7627 6.43555C96.2091 6.43555 99.0987 7.58098 101.371 9.85677C103.659 12.1326 104.803 14.9208 104.803 18.2365ZM87.1039 18.2365C87.1039 20.1054 87.6306 21.6276 88.6992 22.8032C89.7677 23.9787 91.1072 24.5665 92.7627 24.5665C94.4182 24.5665 95.7727 23.9787 96.8262 22.8032C97.8797 21.6276 98.4064 20.1054 98.4064 18.2365C98.4064 16.3676 97.8797 14.8454 96.8262 13.6548C95.7576 12.4641 94.4031 11.8763 92.7627 11.8763C91.1072 11.8763 89.7527 12.4641 88.6992 13.6548C87.6306 14.8454 87.1039 16.3676 87.1039 18.2365Z" fill="white"/>
<path d="M62.4976 17.3474V30.0074H56.1014V17.1816C56.1014 15.373 55.8305 14.0467 55.2736 13.2027C54.7318 12.3587 53.8439 11.9367 52.6098 11.9367C51.3757 11.9367 50.2921 12.4039 49.3439 13.3082C48.3958 14.2276 47.9292 15.5689 47.9292 17.3624V30.0225H41.5781V7.41526H47.9292V9.41976C49.675 7.4454 51.6767 6.45068 53.9342 6.45068C55.379 6.45068 56.6733 6.87268 57.8472 7.73176C59.0211 8.57576 59.909 9.61569 60.496 10.8214C61.3689 9.43483 62.5428 8.36476 64.0327 7.59612C65.5076 6.82747 66.9976 6.45068 68.4875 6.45068C71.1664 6.45068 73.3336 7.24947 74.959 8.84705C76.5995 10.4446 77.4122 12.7506 77.4122 15.7799V30.0074H71.0159V17.1816C71.0159 13.6699 69.7367 11.9216 67.1631 11.9216C65.8989 11.9216 64.7852 12.3888 63.8672 13.2931C62.9642 14.2125 62.4976 15.5539 62.4976 17.3474Z" fill="white"/>
<path d="M134.391 77.4825C143.797 76.2918 150.705 69.5549 149.802 62.4261C148.899 55.3124 140.547 50.5046 131.125 51.6952C121.719 52.8858 114.811 59.6379 115.714 66.7516C116.617 73.8804 124.985 78.6731 134.391 77.4825Z" fill="white"/>
<path d="M294.719 126.736C287.179 126.736 286.999 136.623 273.409 136.623C265.462 136.623 260.42 130.338 259.141 126.706C286.306 126.706 300.995 108.62 300.995 95.3572C300.995 84.4304 293.019 75.0258 277.322 75.0258C257.486 75.0258 242.195 94.2118 235.347 102.923C235.257 103.044 235.106 103.119 234.956 103.119C234.61 103.119 234.369 102.787 234.474 102.471C239.636 85.5156 248.651 61.9287 250.909 54.4683C251.556 52.3131 250.533 49.1782 246.951 49.1782H228.469C222.675 49.1782 220.598 53.5942 219.876 56.081C218.009 62.5014 213.69 76.1863 208.107 94.4379C203.486 109.328 188.451 130.655 180.791 130.655C179.316 130.655 179.165 129.404 179.165 128.831C179.165 125.53 193.704 79.2157 199.438 60.7983C200.491 57.4223 197.978 54.0011 194.441 54.0011H177.299C171.731 54.0011 169.819 57.6785 169.007 60.2558C167.547 64.9128 164.115 75.7342 158.291 94.4831V94.468C152.587 112.192 138.681 130.655 131.021 130.655C129.546 130.655 129.395 129.404 129.395 128.831C129.395 125.726 136.378 103.526 140.171 91.4688C141.209 88.1832 138.756 84.8223 135.31 84.8223H117.912C114.225 84.8223 110.959 87.2186 109.845 90.7453C106.248 102.094 98.8436 125.621 97.444 130.655C94.5694 141.009 95.1112 156.969 112.991 156.969C125.452 156.969 134.587 147.61 145.213 133.503C145.333 133.337 145.529 133.232 145.739 133.232H145.754C146.191 133.232 146.507 133.609 146.432 134.031C144.626 144.144 146.688 156.954 162.746 156.954C175.222 156.954 184.463 147.595 194.983 133.473C195.088 133.322 195.269 133.232 195.465 133.232C195.871 133.232 196.157 133.624 196.036 134.016C193.854 141.159 192.018 147.173 190.799 151.197C190.032 153.714 191.913 156.246 194.547 156.246H215.692C218.175 156.246 220.357 154.633 221.08 152.252C222.058 149.027 223.443 144.52 225.068 139.17C233.902 110.549 257.591 99.5019 268.984 99.5019C271.031 99.5019 274.357 100.135 274.357 103.24C274.357 109.027 264.183 115.025 257.395 117.06C256.613 117.286 255.77 117.196 255.048 116.834C248.847 113.805 242.902 116.563 240.6 123.827C237.981 132.086 238.192 158.672 264.981 158.672C288.203 158.672 299.159 138.025 299.159 131.514C299.159 128.921 297.398 126.736 294.719 126.736Z" fill="white"/>
<path d="M84.5611 78.9293C84.215 83.9481 86.0812 87.2789 92.357 87.2789C98.678 87.2789 106.655 79.6527 107.678 69.8713C108.701 60.09 101.869 44.5513 74.5679 44.5513C40.9613 44.5513 22.6906 61.8081 20.8545 79.3513C20.2525 85.0483 21.8628 89.9164 24.1053 94.061C31.7958 109.208 49.4946 122.365 48.2455 134.287C47.3876 142.456 38.5232 144.882 33.1353 144.882C28.3494 144.882 20.3127 142.32 21.0652 133.111C21.3511 129.584 22.9916 126.058 23.2173 122.682C23.5484 117.663 21.6973 114.332 15.4214 114.332C9.1004 114.332 1.1239 121.958 0.100504 131.74C-0.922897 141.506 5.56365 158.507 33.7072 158.507C67.3138 158.507 86.1564 139.788 87.9774 122.245C88.8052 114.377 85.9457 109.057 83.4624 105.229C75.1548 91.6345 58.6149 80.135 59.834 68.4998C60.7821 59.4871 69.0145 56.2166 74.6582 56.2166C79.4441 56.2166 87.7969 58.1457 86.7132 68.4998C86.337 72.0266 84.7868 75.5533 84.5611 78.9293Z" fill="white"/>
<path d="M40.9912 191.784L42.1802 189.132C43.6551 190.323 45.9878 191.151 48.2453 191.151C51.1048 191.151 52.3239 190.127 52.3239 188.755C52.3239 184.776 41.3825 187.384 41.3825 180.541C41.3825 177.572 43.7454 175.04 48.8022 175.04C51.0145 175.04 53.3172 175.613 54.9275 176.668L53.8439 179.32C52.1884 178.341 50.3674 177.873 48.7721 177.873C45.9276 177.873 44.7838 178.974 44.7838 180.375C44.7838 184.294 55.6951 181.747 55.6951 188.514C55.6951 191.468 53.3021 193.985 48.2604 193.985C45.3858 194 42.5113 193.111 40.9912 191.784Z" fill="white"/>
<path d="M85.9453 175.312V193.729H82.529V185.847H73.0023V193.729H69.5859V175.312H73.0023V182.923H82.529V175.312H85.9453Z" fill="white"/>
<path d="M100.078 184.52C100.078 179.064 104.277 175.04 109.981 175.04C115.685 175.04 119.884 179.034 119.884 184.52C119.884 189.991 115.685 194 109.981 194C104.292 194 100.078 189.976 100.078 184.52ZM116.453 184.52C116.453 180.752 113.698 178.039 109.981 178.039C106.279 178.039 103.51 180.752 103.51 184.52C103.51 188.288 106.264 191.001 109.981 191.001C113.698 191.001 116.453 188.288 116.453 184.52Z" fill="white"/>
<path d="M160.353 175.312L154.258 193.729H150.631L146.086 180.104L141.45 193.729H137.808L131.713 175.312H135.25L139.825 189.313L144.581 175.312H147.741L152.392 189.388L157.102 175.312H160.353Z" fill="white"/>
<path d="M172.167 184.52C172.167 179.019 176.366 175.04 182.025 175.04C185.02 175.04 187.593 176.125 189.309 178.115L187.097 180.194C185.757 178.748 184.102 178.039 182.175 178.039C178.368 178.039 175.598 180.722 175.598 184.52C175.598 188.303 178.353 191.001 182.175 191.001C184.087 191.001 185.742 190.292 187.097 188.815L189.309 190.925C187.593 192.93 185.02 194 181.995 194C176.366 194 172.167 190.021 172.167 184.52Z" fill="white"/>
<path d="M214.638 189.479H205.442L203.621 193.744H200.1L208.377 175.312H211.748L220.056 193.744H216.474L214.638 189.479ZM213.509 186.781L210.033 178.733L206.586 186.781H213.509Z" fill="white"/>
<path d="M231.359 191.784L232.548 189.132C234.023 190.323 236.356 191.151 238.613 191.151C241.473 191.151 242.692 190.127 242.692 188.755C242.692 184.776 231.751 187.384 231.751 180.541C231.751 177.572 234.114 175.04 239.17 175.04C241.383 175.04 243.685 175.613 245.296 176.668L244.212 179.32C242.557 178.341 240.736 177.873 239.14 177.873C236.296 177.873 235.152 178.974 235.152 180.375C235.152 184.294 246.063 181.747 246.063 188.514C246.063 191.468 243.67 193.985 238.629 193.985C235.739 194 232.879 193.111 231.359 191.784Z" fill="white"/>
<path d="M273.755 190.865V193.729H259.954V175.312H273.394V178.175H263.37V182.968H272.25V185.786H263.37V190.865H273.755Z" fill="white"/>
</svg>